<svg xmlns="http://www.w3.org/2000/svg" xmlns:xlink="http://www.w3.org/1999/xlink" width="1920" zoomAndPan="magnify" viewBox="0 0 1440 809.999993" height="1080" preserveAspectRatio="xMidYMid meet" version="1.0"><defs><clipPath id="ab53893bd5"><path d="M 562.25 171.875 L 877.75 171.875 L 877.75 638.125 L 562.25 638.125 Z M 562.25 171.875 " clip-rule="nonzero"/></clipPath><clipPath id="9087e4c554"><path d="M 564.25 290.75 L 564.5 171.875 L 673.75 171.875 L 712.75 196.125 L 719 198.125 L 726.75 197.625 L 734.25 194.875 L 771 171.875 L 874.75 171.875 L 876.25 174.375 L 876.25 393.875 L 874.5 397.125 L 872.25 398.625 L 781.25 398.625 L 777.75 396.125 L 777.25 395.125 L 777.25 277.125 L 776.75 276.625 L 731 308.125 L 725 310.375 L 719 310.625 L 709.25 307.125 L 662.75 275.125 L 662.25 275.625 L 661.75 396.625 L 661 397.875 L 660.25 398.625 L 564 398.625 L 562.75 397.875 L 562.25 174.625 L 564.5 171.875 L 564 409.625 L 664 409.875 L 664 487.875 L 667 490.875 L 703.25 513.375 L 709.25 517.625 L 712.75 519.125 L 719 520.125 L 724.75 519.875 L 733.75 516.625 L 775.25 490.125 L 777 488.375 L 777.25 409.875 L 876.5 409.625 L 876.75 530.875 L 877.75 535.125 L 875 538.375 L 732.5 634.875 L 728.75 636.875 L 722.75 638.125 L 718.25 638.125 L 711 635.875 L 580.75 547.875 L 563.5 535.375 L 563.25 409.875 L 564 409.625 Z M 564.25 290.75 " clip-rule="nonzero"/></clipPath><clipPath id="fe953057ee"><path d="M 0.25 0.875 L 315.75 0.875 L 315.75 467.125 L 0.25 467.125 Z M 0.25 0.875 " clip-rule="nonzero"/></clipPath><clipPath id="eca61376cf"><path d="M 2.25 119.75 L 2.5 0.875 L 111.75 0.875 L 150.75 25.125 L 157 27.125 L 164.75 26.625 L 172.25 23.875 L 209 0.875 L 312.75 0.875 L 314.25 3.375 L 314.25 222.875 L 312.5 226.125 L 310.25 227.625 L 219.25 227.625 L 215.75 225.125 L 215.25 224.125 L 215.25 106.125 L 214.75 105.625 L 169 137.125 L 163 139.375 L 157 139.625 L 147.25 136.125 L 100.75 104.125 L 100.25 104.625 L 99.75 225.625 L 99 226.875 L 98.25 227.625 L 2 227.625 L 0.75 226.875 L 0.25 3.625 L 2.5 0.875 L 2 238.625 L 102 238.875 L 102 316.875 L 105 319.875 L 141.25 342.375 L 147.25 346.625 L 150.75 348.125 L 157 349.125 L 162.75 348.875 L 171.75 345.625 L 213.25 319.125 L 215 317.375 L 215.25 238.875 L 314.5 238.625 L 314.75 359.875 L 315.75 364.125 L 313 367.375 L 170.5 463.875 L 166.75 465.875 L 160.75 467.125 L 156.25 467.125 L 149 464.875 L 18.75 376.875 L 1.5 364.375 L 1.25 238.875 L 2 238.625 Z M 2.25 119.75 " clip-rule="nonzero"/></clipPath><clipPath id="398d9d3c92"><rect x="0" width="316" y="0" height="468"/></clipPath></defs><g clip-path="url(#ab53893bd5)"><g clip-path="url(#9087e4c554)"><g transform="matrix(1, 0, 0, 1, 562, 171)"><g clip-path="url(#398d9d3c92)"><g clip-path="url(#fe953057ee)"><g clip-path="url(#eca61376cf)"><path fill="#ffffff" d="M 0.25 0.875 L 315.75 0.875 L 315.75 467.125 L 0.25 467.125 Z M 0.25 0.875 " fill-opacity="1" fill-rule="nonzero"/></g></g></g></g></g></g></svg>