<svg xmlns="http://www.w3.org/2000/svg" xmlns:xlink="http://www.w3.org/1999/xlink" width="740" zoomAndPan="magnify" viewBox="0 0 555 165.000002" height="220" preserveAspectRatio="xMidYMid meet" version="1.0"><defs><g/><clipPath id="b2f15f38b8"><path d="M 1.671875 15.722656 L 91.117188 15.722656 L 91.117188 147.90625 L 1.671875 147.90625 Z M 1.671875 15.722656 " clip-rule="nonzero"/></clipPath><clipPath id="83c070d686"><path d="M 2.238281 49.421875 L 2.308594 15.722656 L 33.28125 15.722656 L 44.339844 22.597656 L 46.109375 23.164062 L 48.308594 23.023438 L 50.433594 22.242188 L 60.851562 15.722656 L 90.265625 15.722656 L 90.691406 16.429688 L 90.691406 78.660156 L 90.195312 79.582031 L 89.558594 80.007812 L 63.757812 80.007812 L 62.765625 79.296875 L 62.625 79.015625 L 62.625 45.5625 L 62.484375 45.417969 L 49.511719 54.351562 L 47.8125 54.988281 L 46.109375 55.058594 L 43.347656 54.066406 L 30.164062 44.992188 L 30.023438 45.136719 L 29.878906 79.441406 L 29.667969 79.792969 L 29.457031 80.007812 L 2.167969 80.007812 L 1.8125 79.792969 L 1.671875 16.5 L 2.308594 15.722656 L 2.238281 49.421875 L 2.167969 83.125 L 30.519531 83.195312 L 30.519531 105.308594 L 31.367188 106.160156 L 41.644531 112.539062 L 43.347656 113.742188 L 44.339844 114.167969 L 46.109375 114.453125 L 47.742188 114.382812 L 50.292969 113.460938 L 62.058594 105.949219 L 62.554688 105.453125 L 62.625 83.195312 L 90.761719 83.125 L 90.832031 117.5 L 91.117188 118.707031 L 90.335938 119.625 L 49.9375 146.984375 L 48.875 147.550781 L 47.175781 147.90625 L 45.898438 147.90625 L 43.84375 147.269531 L 6.917969 122.320312 L 2.027344 118.777344 L 1.957031 83.195312 L 2.167969 83.125 Z M 2.238281 49.421875 " clip-rule="nonzero"/></clipPath><clipPath id="065c7d8852"><path d="M 0.671875 0.722656 L 90.117188 0.722656 L 90.117188 132.90625 L 0.671875 132.90625 Z M 0.671875 0.722656 " clip-rule="nonzero"/></clipPath><clipPath id="3d7c2789fd"><path d="M 1.238281 34.421875 L 1.308594 0.722656 L 32.28125 0.722656 L 43.339844 7.597656 L 45.109375 8.164062 L 47.308594 8.023438 L 49.433594 7.242188 L 59.851562 0.722656 L 89.265625 0.722656 L 89.691406 1.429688 L 89.691406 63.660156 L 89.195312 64.582031 L 88.558594 65.007812 L 62.757812 65.007812 L 61.765625 64.296875 L 61.625 64.015625 L 61.625 30.5625 L 61.484375 30.417969 L 48.511719 39.351562 L 46.8125 39.988281 L 45.109375 40.058594 L 42.347656 39.066406 L 29.164062 29.992188 L 29.023438 30.136719 L 28.878906 64.441406 L 28.667969 64.792969 L 28.457031 65.007812 L 1.167969 65.007812 L 0.8125 64.792969 L 0.671875 1.5 L 1.308594 0.722656 L 1.238281 34.421875 L 1.167969 68.125 L 29.519531 68.195312 L 29.519531 90.308594 L 30.367188 91.160156 L 40.644531 97.539062 L 42.347656 98.742188 L 43.339844 99.167969 L 45.109375 99.453125 L 46.742188 99.382812 L 49.292969 98.460938 L 61.058594 90.949219 L 61.554688 90.453125 L 61.625 68.195312 L 89.761719 68.125 L 89.832031 102.5 L 90.117188 103.707031 L 89.335938 104.625 L 48.9375 131.984375 L 47.875 132.550781 L 46.175781 132.90625 L 44.898438 132.90625 L 42.84375 132.269531 L 5.917969 107.320312 L 1.027344 103.777344 L 0.957031 68.195312 L 1.167969 68.125 Z M 1.238281 34.421875 " clip-rule="nonzero"/></clipPath><clipPath id="f0f3e4b37c"><rect x="0" width="91" y="0" height="133"/></clipPath></defs><g fill="#ffffff" fill-opacity="1"><g transform="translate(97.213197, 112.75167)"><g><path d="M 61.953125 0 L 61.953125 -44.609375 L 59.109375 -37.28125 L 42.53125 0 L 35.375 0 L 18.984375 -37.28125 L 16.140625 -44.609375 L 16.140625 0 L 6.8125 0 L 6.8125 -57.46875 L 20.625 -57.46875 L 36.578125 -19.671875 L 39.265625 -12.59375 L 41.9375 -19.578125 L 57.71875 -57.46875 L 71.4375 -57.46875 L 71.4375 0 Z M 61.953125 0 "/></g></g></g><g fill="#ffffff" fill-opacity="1"><g transform="translate(171.315345, 112.75167)"><g><path d="M 46.421875 0 L 40.8125 -14.5 L 16.5625 -14.5 L 11.125 0 L 0.953125 0 L 24.078125 -57.46875 L 33.390625 -57.46875 L 56.859375 0 Z M 28.46875 -45.640625 L 19.5 -22.265625 L 37.703125 -22.265625 Z M 28.46875 -45.640625 "/></g></g></g><g fill="#ffffff" fill-opacity="1"><g transform="translate(219.882189, 112.75167)"><g><path d="M 32.4375 -48.828125 L 32.4375 0 L 22.515625 0 L 22.515625 -48.828125 L 2.9375 -48.828125 L 2.9375 -57.46875 L 52.03125 -57.46875 L 52.03125 -48.828125 Z M 32.4375 -48.828125 "/></g></g></g><g fill="#ffffff" fill-opacity="1"><g transform="translate(269.398324, 112.75167)"><g><path d="M 47.890625 -40.125 C 47.191406 -41.5 46.335938 -42.816406 45.328125 -44.078125 C 44.328125 -45.347656 43.148438 -46.472656 41.796875 -47.453125 C 40.453125 -48.429688 38.929688 -49.207031 37.234375 -49.78125 C 35.535156 -50.351562 33.648438 -50.640625 31.578125 -50.640625 C 28.816406 -50.640625 26.382812 -50.222656 24.28125 -49.390625 C 22.1875 -48.554688 20.421875 -47.40625 18.984375 -45.9375 C 17.546875 -44.476562 16.46875 -42.738281 15.75 -40.71875 C 15.03125 -38.707031 14.671875 -36.492188 14.671875 -34.078125 L 14.671875 -23.03125 C 14.671875 -20.675781 15.039062 -18.519531 15.78125 -16.5625 C 16.53125 -14.601562 17.640625 -12.890625 19.109375 -11.421875 C 20.578125 -9.960938 22.375 -8.828125 24.5 -8.015625 C 26.632812 -7.210938 29.109375 -6.8125 31.921875 -6.8125 C 35.890625 -6.8125 39.222656 -7.816406 41.921875 -9.828125 C 44.628906 -11.847656 46.675781 -14.410156 48.0625 -17.515625 L 56.25 -13.8125 C 55.394531 -11.789062 54.234375 -9.84375 52.765625 -7.96875 C 51.296875 -6.101562 49.523438 -4.453125 47.453125 -3.015625 C 45.378906 -1.578125 43.003906 -0.414062 40.328125 0.46875 C 37.660156 1.363281 34.6875 1.8125 31.40625 1.8125 C 27.09375 1.8125 23.265625 1.148438 19.921875 -0.171875 C 16.585938 -1.492188 13.800781 -3.304688 11.5625 -5.609375 C 9.320312 -7.910156 7.609375 -10.582031 6.421875 -13.625 C 5.242188 -16.675781 4.65625 -19.925781 4.65625 -23.375 L 4.65625 -33.734375 C 4.65625 -37.242188 5.257812 -40.535156 6.46875 -43.609375 C 7.675781 -46.691406 9.441406 -49.394531 11.765625 -51.71875 C 14.097656 -54.050781 16.945312 -55.894531 20.3125 -57.25 C 23.675781 -58.601562 27.488281 -59.28125 31.75 -59.28125 C 34.851562 -59.28125 37.726562 -58.832031 40.375 -57.9375 C 43.019531 -57.039062 45.390625 -55.875 47.484375 -54.4375 C 49.585938 -53 51.390625 -51.359375 52.890625 -49.515625 C 54.390625 -47.679688 55.507812 -45.785156 56.25 -43.828125 Z M 47.890625 -40.125 "/></g></g></g><g fill="#ffffff" fill-opacity="1"><g transform="translate(324.090563, 112.75167)"><g><path d="M 46.328125 0 L 46.328125 -24.84375 L 16.734375 -24.84375 L 16.734375 0 L 6.8125 0 L 6.8125 -57.46875 L 16.734375 -57.46875 L 16.734375 -33.125 L 46.328125 -33.125 L 46.328125 -57.46875 L 56.25 -57.46875 L 56.25 0 Z M 46.328125 0 "/></g></g></g><g fill="#ffffff" fill-opacity="1"><g transform="translate(383.009841, 112.75167)"><g><path d="M 55.390625 -19.671875 C 55.390625 -16.566406 54.867188 -13.703125 53.828125 -11.078125 C 52.796875 -8.460938 51.242188 -6.191406 49.171875 -4.265625 C 47.109375 -2.335938 44.535156 -0.84375 41.453125 0.21875 C 38.378906 1.28125 34.800781 1.8125 30.71875 1.8125 C 26.75 1.8125 23.238281 1.289062 20.1875 0.25 C 17.132812 -0.78125 14.570312 -2.242188 12.5 -4.140625 C 10.4375 -6.035156 8.882812 -8.289062 7.84375 -10.90625 C 6.8125 -13.53125 6.296875 -16.453125 6.296875 -19.671875 L 6.296875 -57.46875 L 16.3125 -57.46875 L 16.3125 -19.671875 C 16.3125 -15.523438 17.53125 -12.34375 19.96875 -10.125 C 22.414062 -7.914062 26.113281 -6.8125 31.0625 -6.8125 C 36.125 -6.8125 39.773438 -7.914062 42.015625 -10.125 C 44.265625 -12.34375 45.390625 -15.523438 45.390625 -19.671875 L 45.390625 -57.46875 L 55.390625 -57.46875 Z M 55.390625 -19.671875 "/></g></g></g><g fill="#ffffff" fill-opacity="1"><g transform="translate(440.54886, 112.75167)"><g><path d="M 52.28125 -38.21875 C 52.28125 -35.863281 51.890625 -33.675781 51.109375 -31.65625 C 50.335938 -29.644531 49.128906 -27.921875 47.484375 -26.484375 C 45.847656 -25.046875 43.765625 -23.925781 41.234375 -23.125 C 38.710938 -22.320312 35.664062 -21.921875 32.09375 -21.921875 L 16.734375 -21.921875 L 16.734375 0 L 6.8125 0 L 6.8125 -57.46875 L 32.09375 -57.46875 C 35.664062 -57.46875 38.710938 -57.0625 41.234375 -56.25 C 43.765625 -55.445312 45.847656 -54.3125 47.484375 -52.84375 C 49.128906 -51.375 50.335938 -49.632812 51.109375 -47.625 C 51.890625 -45.613281 52.28125 -43.398438 52.28125 -40.984375 Z M 42.28125 -41.0625 C 42.28125 -43.363281 41.570312 -45.234375 40.15625 -46.671875 C 38.75 -48.109375 36.320312 -48.828125 32.875 -48.828125 L 16.734375 -48.828125 L 16.734375 -30.109375 L 33.125 -30.109375 C 36.519531 -30.109375 38.894531 -30.851562 40.25 -32.34375 C 41.601562 -33.84375 42.28125 -35.742188 42.28125 -38.046875 Z M 42.28125 -41.0625 "/></g></g></g><g clip-path="url(#b2f15f38b8)"><g clip-path="url(#83c070d686)"><g transform="matrix(1, 0, 0, 1, 1, 15)"><g clip-path="url(#f0f3e4b37c)"><g clip-path="url(#065c7d8852)"><g clip-path="url(#3d7c2789fd)"><path fill="#ffffff" d="M 0.671875 0.722656 L 90.117188 0.722656 L 90.117188 132.90625 L 0.671875 132.90625 Z M 0.671875 0.722656 " fill-opacity="1" fill-rule="nonzero"/></g></g></g></g></g></g></svg>